<svg xmlns="http://www.w3.org/2000/svg" viewBox="0 0 320 400" width="320" height="400" role="img" aria-label="WhatsApp Sales Method ebook cover">
  <defs>
    <linearGradient id="cm" x1="0" y1="0" x2="1" y2="1">
      <stop offset="0" stop-color="#25D366"/><stop offset="1" stop-color="#075E54"/>
    </linearGradient>
    <linearGradient id="cmsh" x1="0" y1="0" x2="1" y2="0">
      <stop offset="0" stop-color="#000" stop-opacity=".28"/><stop offset="1" stop-color="#000" stop-opacity="0"/>
    </linearGradient>
  </defs>
  <!-- drop shadow -->
  <ellipse cx="170" cy="384" rx="120" ry="12" fill="#000" opacity=".16"/>
  <!-- pages -->
  <rect x="60" y="26" width="208" height="350" rx="6" fill="#e9edef"/>
  <rect x="58" y="22" width="208" height="350" rx="6" fill="#f4f6f7"/>
  <!-- cover -->
  <rect x="48" y="16" width="212" height="358" rx="8" fill="url(#cm)"/>
  <!-- spine shading -->
  <rect x="48" y="16" width="26" height="358" rx="8" fill="url(#cmsh)"/>
  <!-- WhatsApp glyph -->
  <g transform="translate(140,70)">
    <circle r="26" fill="#fff" opacity=".15"/>
    <path transform="translate(-16,-16) scale(1.33)" fill="#fff" d="M12 2a10 10 0 0 0-8.6 15l-1.3 4.7 4.8-1.3A10 10 0 1 0 12 2zm0 18a8 8 0 0 1-4.1-1.1l-.3-.2-2.9.8.8-2.8-.2-.3A8 8 0 1 1 12 20zm4.4-5.9c-.2-.1-1.4-.7-1.6-.8s-.4-.1-.5.1-.6.8-.8 1-.3.2-.5.1a6.5 6.5 0 0 1-1.9-1.2 7.2 7.2 0 0 1-1.3-1.7c-.1-.2 0-.4.1-.5l.4-.4.2-.4v-.4l-.8-1.8c-.2-.5-.4-.4-.5-.4h-.5a1 1 0 0 0-.7.3 2.8 2.8 0 0 0-.9 2.1 4.9 4.9 0 0 0 1 2.6 11.2 11.2 0 0 0 4.3 3.8c.6.3 1.1.4 1.5.5a3.6 3.6 0 0 0 1.6.1 2.7 2.7 0 0 0 1.7-1.2 2.1 2.1 0 0 0 .2-1.2c-.1-.1-.3-.2-.5-.3z"/>
  </g>
  <text x="154" y="118" text-anchor="middle" fill="#dff7e8" font-family="Arial,Helvetica,sans-serif" font-size="11" font-weight="700" letter-spacing="2">THE COMPLETE METHOD</text>
  <text x="154" y="178" text-anchor="middle" fill="#fff" font-family="Arial,Helvetica,sans-serif" font-size="32" font-weight="800">WhatsApp</text>
  <text x="154" y="214" text-anchor="middle" fill="#fff" font-family="Arial,Helvetica,sans-serif" font-size="32" font-weight="800">Sales</text>
  <text x="154" y="250" text-anchor="middle" fill="#fff" font-family="Arial,Helvetica,sans-serif" font-size="32" font-weight="800">Method</text>
  <rect x="118" y="270" width="72" height="3" rx="1.5" fill="#dff7e8"/>
  <text x="154" y="298" text-anchor="middle" fill="#eafff3" font-family="Arial,Helvetica,sans-serif" font-size="13">Turn conversations into clients</text>
  <text x="154" y="352" text-anchor="middle" fill="#cfeede" font-family="Arial,Helvetica,sans-serif" font-size="12" font-weight="700">by Léo Martins</text>
</svg>
